<svg xmlns="http://www.w3.org/2000/svg" width="262.895" height="183.211" viewBox="0 0 262.895 183.211"><defs><style>.a{fill:#dfe8e7;}</style></defs><g transform="translate(0 0)"><g transform="translate(0 89.723)"><path class="a" d="M19.6,108.754l6.283-41.64H38.705v58.647H29.994V83.7l-6.368,42.058H14.914L8.045,84.289v41.472H0V67.115H12.818Z" transform="translate(0 -66.445)"/><path class="a" d="M64.165,125.762h-9.3l-1.592-10.64H41.964l-1.592,10.64H31.91l9.385-58.647H54.783Zm-21.028-18.6h8.881L47.578,77.5Z" transform="translate(11.068 -66.444)"/><path class="a" d="M86.345,81.608v7.624c0,9.383-4.524,14.495-13.74,14.495H68.247v22.034H59.032V67.115H72.6C81.819,67.115,86.345,72.225,86.345,81.608Zm-18.1-6.116V95.349H72.6c2.933,0,4.524-1.34,4.524-5.53v-8.8c0-4.189-1.592-5.529-4.524-5.529Z" transform="translate(20.475 -66.444)"/><path class="a" d="M82.793,67.115h9.216v50.269h15.164v8.377H82.793Z" transform="translate(28.716 -66.444)"/><path class="a" d="M113.1,91.83h12.651v8.379H113.1v17.175h15.917v8.377H103.88V67.115h25.133v8.379H113.1Z" transform="translate(36.03 -66.444)"/><path class="a" d="M124.779,67.115h28.486v8.379h-9.635v50.268h-9.215V75.492h-9.635Z" transform="translate(43.278 -66.444)"/><path class="a" d="M148.354,81.362c0-9.383,4.943-14.745,13.991-14.745s13.991,5.362,13.991,14.745v30.5c0,9.383-4.943,14.745-13.991,14.745s-13.991-5.362-13.991-14.745Zm9.216,31.084c0,4.189,1.844,5.781,4.776,5.781s4.776-1.592,4.776-5.781V80.776c0-4.189-1.842-5.781-4.776-5.781s-4.776,1.592-4.776,5.781Z" transform="translate(51.455 -66.617)"/><path class="a" d="M181.778,83.284V125.76h-8.294V67.115h11.563l9.467,35.1v-35.1h8.21v58.647h-9.467Z" transform="translate(60.171 -66.444)"/></g><g transform="translate(73.07 166.984)"><path class="a" d="M56.86,135.561V139.9H54.253V124.165H56.86v7.983l6.854-7.983h3.1l-5.791,6.629,5.926,9.1H63.826l-4.608-7.037Z" transform="translate(-54.253 -123.919)"/><path class="a" d="M71.144,124.166V139.9H68.537V124.166Z" transform="translate(-49.299 -123.918)"/><path class="a" d="M87.721,126.458H82.913V139.9H80.306v-13.44H75.5v-2.292H87.721Z" transform="translate(-46.885 -123.918)"/><path class="a" d="M98.435,134.747h2.586v.629a4.868,4.868,0,0,1-.3,1.731,4.7,4.7,0,0,1-.967,1.529,4.55,4.55,0,0,1-1.876,1.146,8.625,8.625,0,0,1-2.854.427,7.682,7.682,0,0,1-2.888-.494,4.6,4.6,0,0,1-1.9-1.327,5.589,5.589,0,0,1-.989-1.787,6.45,6.45,0,0,1-.314-2.034V129.6a6.347,6.347,0,0,1,.314-2.023,5.661,5.661,0,0,1,.989-1.775,4.584,4.584,0,0,1,1.9-1.325,7.714,7.714,0,0,1,2.888-.494,8.806,8.806,0,0,1,2.854.416,4.538,4.538,0,0,1,1.876,1.123,4.445,4.445,0,0,1,1.271,3.18v.54H98.435v-.4a2.382,2.382,0,0,0-.809-1.809,3.755,3.755,0,0,0-2.607-.753,3.317,3.317,0,0,0-2.652.967,3.488,3.488,0,0,0-.831,2.36v4.967a3.557,3.557,0,0,0,.82,2.383,3.309,3.309,0,0,0,2.663.966,3.677,3.677,0,0,0,2.607-.776,2.525,2.525,0,0,0,.809-1.9Z" transform="translate(-42.226 -123.982)"/><path class="a" d="M112.993,139.9v-7.079h-7.057V139.9h-2.607V124.165h2.607v6.383h7.057v-6.383H115.6V139.9Z" transform="translate(-37.232 -123.919)"/><path class="a" d="M118.48,139.9V124.165h10.271v2.2h-7.664v4.315h7.192v2.112h-7.192v4.9h7.979v2.2H118.48Z" transform="translate(-31.977 -123.919)"/><path class="a" d="M141.921,139.9l-7.618-10.93V139.9H131.83V124.165H134l7.6,10.946V124.165H144.1V139.9Z" transform="translate(-27.346 -123.919)"/></g><g transform="translate(58.284 0)"><g transform="translate(48.427 3.771)"><path class="a" d="M94.864,3.179a1.3,1.3,0,0,0-1.83,0L79.611,16.6a1.295,1.295,0,0,0,1.832,1.83L94.865,5.009A1.3,1.3,0,0,0,94.864,3.179Z" transform="translate(-79.231 -2.8)"/></g><g transform="translate(52.078 7.363)"><path class="a" d="M97.573,5.846a1.3,1.3,0,0,0-1.83,0L82.321,19.268a1.295,1.295,0,0,0,1.832,1.83L97.575,7.676A1.3,1.3,0,0,0,97.573,5.846Z" transform="translate(-81.942 -5.467)"/></g><g transform="translate(3.822 11.537)"><path class="a" d="M97.339,27.437,114,10.775a1.294,1.294,0,0,0-1.83-1.83L95.507,25.606a6.873,6.873,0,0,1-7.81,1.34,1.294,1.294,0,0,0-1.526.308L80.51,33.633s-.005,0-.007.007l-.007.008L56.027,61.217l-.019.022c-.081.094-.156.178-.234.256a4.143,4.143,0,1,1-5.857-5.86c.075-.075.159-.151.253-.233l.022-.019L65.49,41.8a1.295,1.295,0,1,0-1.719-1.937L48.483,53.436c-.147.125-.277.245-.4.368a6.733,6.733,0,0,0,9.521,9.524c.124-.124.245-.255.368-.4L76.62,41.919,95.267,62.927c.124.145.244.276.368.4a6.732,6.732,0,0,0,9.522-9.519c-.124-.124-.255-.245-.4-.368L83.3,34.394l4.2-4.73A9.475,9.475,0,0,0,97.339,27.437Zm5.708,27.944.022.019c.094.081.178.156.256.234a4.143,4.143,0,1,1-5.86,5.857c-.077-.077-.154-.16-.233-.255l-.019-.022L78.35,39.966l3.23-3.639Z" transform="translate(-46.113 -8.566)"/></g><path class="a" d="M103.449.379a1.3,1.3,0,0,0-1.83,0L84.957,17.042a9.469,9.469,0,0,0-2.225,9.841L77.6,31.434l-4.928-4.373a13.022,13.022,0,0,0-2.424-15.145,29.477,29.477,0,0,0-13.1-7.956C52.533,2.8,48.568,3.573,45.992,6.148s-3.354,6.54-2.189,11.165a29.461,29.461,0,0,0,7.957,13.1,13.02,13.02,0,0,0,15.145,2.426l4.88,5.5a1.3,1.3,0,0,0,1.828.109L85.139,28.211a1.294,1.294,0,0,0,.308-1.526,6.873,6.873,0,0,1,1.34-7.81L103.449,2.21A1.3,1.3,0,0,0,103.449.379ZM72.86,35.644l-4.713-5.309a1.294,1.294,0,0,0-1.647-.242,10.445,10.445,0,0,1-12.912-1.515,26.883,26.883,0,0,1-7.277-11.9c-.933-3.705-.4-6.8,1.508-8.7s5-2.442,8.7-1.508a26.891,26.891,0,0,1,11.9,7.276,10.445,10.445,0,0,1,1.515,12.912,1.294,1.294,0,0,0,.242,1.647l5.475,4.859Z" transform="translate(-43.275 0)"/><g transform="translate(88.694 0)"><path class="a" d="M110.561,59.84a1.418,1.418,0,1,1,0-2.836h9.809l-1.623-1.126a22.323,22.323,0,0,1-9.619-18.326V24.29h44.9v4.674h6.746a5.993,5.993,0,0,1,5.813,7.444L165.1,42.34a10.749,10.749,0,0,1-10.443,8.154h-4.781l-.186.252A22.449,22.449,0,0,1,144.4,55.88l-1.623,1.126h9.809a1.418,1.418,0,1,1,0,2.836H110.561Zm1.4-22.29A19.475,19.475,0,0,0,131.416,57h.318A19.474,19.474,0,0,0,151.186,37.55V27.125H111.962V37.55Zm42.059,0a22.066,22.066,0,0,1-2,9.231l-.4.874h3.033a7.915,7.915,0,0,0,7.692-6l1.483-5.934a3.154,3.154,0,0,0-3.06-3.919h-6.746Z" transform="translate(-109.128 8.425)"/><path class="a" d="M122.707,26.2a1.42,1.42,0,0,1-1.418-1.418v-.6a8.137,8.137,0,0,1,8.127-8.128h16.656a12.618,12.618,0,0,0,12.6-12.6V1.418a1.418,1.418,0,1,1,2.836,0V3.453a15.456,15.456,0,0,1-15.439,15.439H129.417a5.3,5.3,0,0,0-5.292,5.292v.6A1.42,1.42,0,0,1,122.707,26.2Z" transform="translate(-104.91 0)"/><path class="a" d="M115.767,26.2a1.42,1.42,0,0,1-1.418-1.418A17.494,17.494,0,0,1,131.823,7.312h16.656a3.261,3.261,0,0,0,3.257-3.255V1.418a1.418,1.418,0,1,1,2.836,0V4.055a6.1,6.1,0,0,1-6.09,6.092H131.824a14.656,14.656,0,0,0-14.639,14.639A1.422,1.422,0,0,1,115.767,26.2Z" transform="translate(-107.317 0)"/></g></g></g></svg>