<?xml version="1.0" encoding="iso-8859-1"?>
<!-- Generator: Adobe Illustrator 25.0.0, SVG Export Plug-In . SVG Version: 6.00 Build 0)  -->
<svg version="1.1" id="Layer_1" xmlns="http://www.w3.org/2000/svg" xmlns:xlink="http://www.w3.org/1999/xlink" x="0px" y="0px"
	 viewBox="0 0 305.747 376.337" style="enable-background:new 0 0 305.747 376.337;" xml:space="preserve">
<g>
	<g>
		<g>
			<path style="fill:#E0E8E7;" d="M152.579,337.863c-63.242,0-114.694-51.452-114.694-114.694v-70.002
				c0-63.242,51.452-114.692,114.694-114.692s114.694,51.451,114.694,114.692v70.002
				C267.273,286.411,215.821,337.863,152.579,337.863z M152.579,39.782c-62.522,0-113.387,50.864-113.387,113.385v70.002
				c0,62.522,50.865,113.387,113.387,113.387s113.387-50.865,113.387-113.387v-70.002C265.966,90.646,215.101,39.782,152.579,39.782
				z"/>
			<path style="fill:#E0E8E7;" d="M152.579,323.034c-55.065,0-99.865-44.799-99.865-99.865v-70.002
				c0-55.065,44.799-99.863,99.865-99.863s99.865,44.799,99.865,99.863v70.002C252.444,278.234,207.645,323.034,152.579,323.034z
				 M152.579,54.611c-54.344,0-98.557,44.212-98.557,98.556v70.002c0,54.344,44.213,98.557,98.557,98.557
				s98.557-44.213,98.557-98.557v-70.002C251.136,98.823,206.923,54.611,152.579,54.611z"/>
			<rect x="151.925" y="28.346" style="fill:#E0E8E7;" width="1.308" height="25.611"/>
			<rect x="151.925" y="322.38" style="fill:#E0E8E7;" width="1.308" height="25.611"/>
			<rect x="28.346" y="187.514" style="fill:#E0E8E7;" width="25.611" height="1.308"/>
			<rect x="251.79" y="187.514" style="fill:#E0E8E7;" width="25.611" height="1.308"/>
		</g>
		<g>
			<g>
				<g>
					<path style="fill:#E0E8E7;" d="M97.281,244.559v4.323h-2.599V233.2h2.599v7.957l6.832-7.957h3.092l-5.773,6.608l5.908,9.074
						h-3.114l-4.593-7.015L97.281,244.559z"/>
					<path style="fill:#E0E8E7;" d="M116.458,233.2v15.682h-2.599V233.2H116.458z"/>
					<path style="fill:#E0E8E7;" d="M135.388,235.485h-4.793v13.397h-2.599v-13.397h-4.794V233.2h12.187V235.485z"/>
					<path style="fill:#E0E8E7;" d="M150.711,243.685h2.577v0.627c0,0.613-0.101,1.187-0.303,1.725
						c-0.202,0.538-0.523,1.045-0.963,1.524c-0.44,0.478-1.064,0.859-1.871,1.142c-0.806,0.284-1.755,0.426-2.845,0.426
						c-1.105,0-2.064-0.164-2.879-0.492c-0.814-0.329-1.445-0.769-1.893-1.322c-0.448-0.552-0.777-1.146-0.986-1.781
						c-0.209-0.635-0.313-1.311-0.313-2.027v-4.951c0-0.717,0.104-1.389,0.313-2.016s0.538-1.217,0.986-1.77
						c0.449-0.553,1.08-0.993,1.893-1.322c0.815-0.328,1.774-0.493,2.879-0.493c1.09,0,2.039,0.138,2.845,0.414
						s1.43,0.649,1.871,1.12c0.44,0.47,0.762,0.967,0.963,1.49c0.202,0.523,0.303,1.083,0.303,1.68v0.538h-2.577v-0.403
						c0-0.702-0.268-1.303-0.806-1.803c-0.537-0.5-1.404-0.75-2.599-0.75c-1.21,0-2.091,0.321-2.643,0.963
						c-0.553,0.642-0.829,1.426-0.829,2.352v4.951c0,0.941,0.272,1.733,0.818,2.375c0.545,0.642,1.43,0.963,2.655,0.963
						c1.195,0,2.061-0.257,2.599-0.773c0.538-0.515,0.806-1.146,0.806-1.893V243.685z"/>
					<path style="fill:#E0E8E7;" d="M170.202,248.882v-7.057h-7.035v7.057h-2.599V233.2h2.599v6.362h7.035V233.2h2.599v15.682
						H170.202z"/>
					<path style="fill:#E0E8E7;" d="M180.91,248.882V233.2h10.238v2.195h-7.64v4.302h7.169v2.106h-7.169v4.884h7.953v2.195H180.91z"
						/>
					<path style="fill:#E0E8E7;" d="M208.891,248.882l-7.594-10.894v10.894h-2.465V233.2h2.166l7.58,10.911V233.2h2.486v15.682
						H208.891z"/>
				</g>
				<g>
					<path style="fill:#E0E8E7;" d="M82.804,208.091l3.937-26.087h8.031v36.742h-5.459v-26.35l-3.989,26.35h-5.459l-4.304-25.982
						v25.982h-5.039v-36.742h8.031L82.804,208.091z"/>
					<path style="fill:#E0E8E7;" d="M117.655,218.746h-5.827l-0.997-6.666h-7.086l-0.998,6.666h-5.301l5.879-36.742h8.45
						L117.655,218.746z M104.481,207.094h5.564l-2.782-18.581L104.481,207.094z"/>
					<path style="fill:#E0E8E7;" d="M137.443,191.084v4.777c0,5.879-2.835,9.081-8.609,9.081h-2.729v13.805h-5.774v-36.742h8.503
						C134.609,182.004,137.443,185.206,137.443,191.084z M126.105,187.253v12.44h2.729c1.838,0,2.835-0.84,2.835-3.464v-5.511
						c0-2.624-0.997-3.464-2.835-3.464H126.105z"/>
					<path style="fill:#E0E8E7;" d="M140.382,182.004h5.774v31.494h9.5v5.249h-15.274V182.004z"/>
					<path style="fill:#E0E8E7;" d="M163.949,197.488h7.926v5.249h-7.926v10.76h9.972v5.249h-15.746v-36.742h15.746v5.249h-9.972
						V197.488z"/>
					<path style="fill:#E0E8E7;" d="M175.81,182.004h17.847v5.249h-6.036v31.493h-5.774v-31.493h-6.037V182.004z"/>
					<path style="fill:#E0E8E7;" d="M195.702,190.822c0-5.879,3.097-9.238,8.766-9.238s8.766,3.359,8.766,9.238v19.106
						c0,5.879-3.097,9.238-8.766,9.238s-8.766-3.359-8.766-9.238V190.822z M201.476,210.296c0,2.624,1.155,3.622,2.992,3.622
						c1.838,0,2.992-0.997,2.992-3.622v-19.841c0-2.624-1.155-3.622-2.992-3.622c-1.837,0-2.992,0.997-2.992,3.622V210.296z"/>
					<path style="fill:#E0E8E7;" d="M222.103,192.134v26.612h-5.196v-36.742h7.244l5.931,21.993v-21.993h5.144v36.742h-5.931
						L222.103,192.134z"/>
				</g>
			</g>
			<g>
				<g>
					<g>
						<g>
							<path style="fill:#E0E8E7;" d="M146.616,108.901c-0.348-0.347-0.911-0.348-1.258,0l-9.226,9.225
								c-0.348,0.348-0.348,0.911,0,1.258c0.174,0.174,0.401,0.261,0.629,0.261c0.228,0,0.455-0.087,0.629-0.261l9.226-9.225
								C146.964,109.812,146.964,109.248,146.616,108.901z"/>
						</g>
					</g>
					<g>
						<g>
							<path style="fill:#E0E8E7;" d="M149.125,111.37c-0.348-0.347-0.911-0.347-1.258,0l-9.225,9.225
								c-0.347,0.348-0.347,0.911,0,1.258c0.174,0.174,0.402,0.261,0.629,0.261s0.455-0.087,0.629-0.261l9.225-9.226
								C149.473,112.281,149.473,111.718,149.125,111.37z"/>
						</g>
					</g>
					<g>
						<g>
							<path style="fill:#E0E8E7;" d="M140.422,126.949l11.452-11.452c0.348-0.348,0.348-0.911,0-1.258
								c-0.348-0.347-0.911-0.348-1.258,0l-11.452,11.452c-1.411,1.411-3.568,1.781-5.368,0.921
								c-0.358-0.171-0.786-0.084-1.049,0.212l-3.891,4.384c-0.002,0.002-0.003,0.003-0.005,0.005
								c-0.002,0.002-0.003,0.004-0.004,0.005l-16.819,18.949c-0.004,0.005-0.009,0.01-0.013,0.015
								c-0.055,0.065-0.108,0.122-0.161,0.175c-1.111,1.11-2.917,1.11-4.027,0c-0.538-0.538-0.834-1.253-0.834-2.014
								c0-0.761,0.296-1.476,0.835-2.015c0.052-0.052,0.109-0.104,0.174-0.16c0.005-0.004,0.01-0.008,0.015-0.013l10.515-9.333
								c0.368-0.326,0.401-0.889,0.075-1.256c-0.326-0.368-0.889-0.401-1.256-0.075l-10.508,9.326
								c-0.1,0.086-0.19,0.169-0.274,0.252c-0.874,0.874-1.355,2.036-1.355,3.272c0,1.236,0.481,2.398,1.355,3.272
								c0.902,0.902,2.087,1.353,3.272,1.353c1.185,0,2.37-0.451,3.271-1.353c0.085-0.085,0.168-0.175,0.253-0.275l12.816-14.44
								l12.816,14.44c0.085,0.1,0.168,0.19,0.253,0.274c0.902,0.902,2.087,1.353,3.272,1.353c1.185,0,2.37-0.451,3.272-1.353
								c1.804-1.804,1.804-4.74,0-6.543c-0.085-0.085-0.175-0.168-0.275-0.253l-14.748-13.09l2.885-3.251
								C135.996,129.307,138.641,128.73,140.422,126.949z M144.346,146.156c0.005,0.004,0.01,0.009,0.015,0.013
								c0.065,0.055,0.122,0.108,0.175,0.161c1.11,1.11,1.11,2.917,0,4.027c-1.111,1.11-2.917,1.11-4.028,0
								c-0.053-0.053-0.105-0.11-0.161-0.175c-0.004-0.005-0.008-0.01-0.013-0.015l-12.964-14.606l2.22-2.501L144.346,146.156z"/>
						</g>
					</g>
					<g>
						<g>
							<path style="fill:#E0E8E7;" d="M143.945,106.309c-0.348-0.347-0.911-0.347-1.258,0l-11.452,11.452
								c-1.781,1.781-2.358,4.426-1.53,6.764l-3.524,3.128l-3.387-3.006c1.752-3.446,1.112-7.631-1.667-10.41
								c-2.76-2.76-5.957-4.702-9.001-5.469c-3.178-0.8-5.903-0.266-7.674,1.504c-1.77,1.77-2.305,4.496-1.504,7.674
								c0.767,3.044,2.709,6.241,5.469,9.001c2.779,2.779,6.963,3.418,10.41,1.667c0,0,3.312,3.732,3.354,3.779
								c0.176,0.198,0.42,0.299,0.666,0.299c0.21,0,0.421-0.074,0.59-0.224l7.923-7.032c0.297-0.263,0.383-0.691,0.212-1.049
								c-0.86-1.8-0.49-3.957,0.921-5.368l11.452-11.452C144.293,107.22,144.293,106.657,143.945,106.309z M122.921,130.548
								l-3.239-3.649c-0.287-0.323-0.765-0.394-1.132-0.167c-2.853,1.759-6.502,1.331-8.875-1.042
								c-2.536-2.536-4.312-5.44-5.001-8.177c-0.641-2.547-0.273-4.671,1.037-5.981c1.31-1.31,3.434-1.678,5.981-1.037
								c2.738,0.689,5.642,2.465,8.177,5.001c2.373,2.372,2.801,6.022,1.042,8.875c-0.227,0.368-0.156,0.846,0.167,1.132l3.763,3.34
								L122.921,130.548z"/>
						</g>
					</g>
				</g>
				<g>
					<path style="fill:#E0E8E7;" d="M164.533,152.969c-0.538,0-0.974-0.437-0.974-0.975c0-0.537,0.437-0.975,0.974-0.975h6.742
						l-1.116-0.774c-4.14-2.871-6.611-7.58-6.611-12.597v-9.115h30.858v3.212h4.637c1.277,0,2.46,0.577,3.245,1.584
						c0.786,1.006,1.059,2.293,0.75,3.533l-1.02,4.078c-0.825,3.3-3.776,5.604-7.178,5.604h-3.286l-0.127,0.173
						c-1.01,1.37-2.231,2.557-3.632,3.528l-1.116,0.774h6.742c0.538,0,0.974,0.437,0.974,0.975c0,0.537-0.437,0.975-0.974,0.975
						H164.533z M165.496,137.649c0,7.372,5.998,13.37,13.371,13.37h0.219c7.372,0,13.371-5.998,13.371-13.37v-7.165h-26.96V137.649z
						 M194.405,137.649c0,2.21-0.463,4.345-1.376,6.345l-0.274,0.601h2.084c2.506,0,4.679-1.697,5.287-4.127l1.019-4.078
						c0.163-0.652,0.019-1.33-0.394-1.86c-0.413-0.53-1.036-0.834-1.709-0.834h-4.637V137.649z"/>
					<path style="fill:#E0E8E7;" d="M175.78,124.059c-0.538,0-0.974-0.437-0.974-0.975v-0.413c0-3.08,2.506-5.586,5.586-5.586
						h11.449c4.777,0,8.663-3.886,8.663-8.662v-1.399c0-0.537,0.437-0.975,0.974-0.975s0.974,0.437,0.974,0.975v1.399
						c0,5.851-4.76,10.612-10.612,10.612h-11.449c-2.005,0-3.637,1.631-3.637,3.637v0.413
						C176.755,123.622,176.318,124.059,175.78,124.059z"/>
					<path style="fill:#E0E8E7;" d="M169.356,124.059c-0.538,0-0.974-0.437-0.974-0.975c0-6.623,5.387-12.011,12.01-12.011h11.449
						c1.233,0,2.238-1.004,2.238-2.238v-1.813c0-0.537,0.437-0.975,0.974-0.975c0.538,0,0.974,0.437,0.974,0.975v1.813
						c0,2.309-1.878,4.187-4.186,4.187h-11.449c-5.548,0-10.062,4.514-10.062,10.061
						C170.33,123.622,169.893,124.059,169.356,124.059z"/>
				</g>
			</g>
		</g>
	</g>
</g>
<g>
</g>
<g>
</g>
<g>
</g>
<g>
</g>
<g>
</g>
<g>
</g>
</svg>
