<?xml version="1.0" encoding="iso-8859-1"?>
<!-- Generator: Adobe Illustrator 25.0.0, SVG Export Plug-In . SVG Version: 6.00 Build 0)  -->
<svg version="1.1" id="Layer_1" xmlns="http://www.w3.org/2000/svg" xmlns:xlink="http://www.w3.org/1999/xlink" x="0px" y="0px"
	 viewBox="0 0 796.956 665.22" style="enable-background:new 0 0 796.956 665.22;" xml:space="preserve">
<g id="Group_16" transform="translate(0 0)" style="opacity:0.06;">
	<path id="Path_23" style="fill:#DFE8E7;" d="M136.29,0.003l-33.083,219.2L67.48,0.003H0.002V308.74h42.336V90.418L78.502,308.74
		h45.874l33.518-221.413V308.74h45.874V0.003H136.29z"/>
	<path id="Path_24" style="fill:#DFE8E7;" d="M308.734,54.687l23.376,156.134h-46.756L308.734,54.687z M275.648,0l-49.4,308.737
		h44.543l8.388-56.013h59.544l8.366,56.013h48.965L346.656,0H275.648z"/>
	<g id="Group_15" transform="translate(0 0)">
		<g>
			<g id="Group_14">
				<path id="Path_25" style="fill:#DFE8E7;" d="M562.334,76.3v40.131c0,49.4-23.823,76.3-72.341,76.3h-22.938v116h-48.511V0h71.448
					C538.513,0,562.334,26.907,562.334,76.3 M467.056,44.1v104.539h22.937c15.443,0,23.816-7.062,23.816-29.112V73.214
					c0-22.051-8.374-29.105-23.816-29.105L467.056,44.1z"/>
				<path id="Path_26" style="fill:#DFE8E7;" d="M0,352.949h48.518v264.635h79.829v44.108H0V352.949z"/>
				<path id="Path_27" style="fill:#DFE8E7;" d="M198.03,483.066h66.6v44.108h-66.6v90.415h83.795v44.1H149.512V352.945h132.313
					v44.115H198.03V483.066z"/>
				<path id="Path_28" style="fill:#DFE8E7;" d="M297.696,352.949h149.958v44.115h-50.717v264.628h-48.518V397.064h-50.723V352.949z
					"/>
				<path id="Path_29" style="fill:#DFE8E7;" d="M464.85,427.052c0-49.4,26.021-77.624,73.653-77.624s73.66,28.226,73.66,77.624
					v160.537c0,49.4-26.021,77.631-73.66,77.631s-73.653-28.226-73.653-77.631V427.052z M513.361,590.68
					c0,22.051,9.707,30.431,25.142,30.431s25.142-8.381,25.142-30.431V423.96c0-22.051-9.7-30.431-25.142-30.431
					s-25.142,8.381-25.142,30.431V590.68z"/>
				<path id="Path_30" style="fill:#DFE8E7;" d="M686.685,438.067V661.69h-43.662V352.946h60.87l49.839,184.807V352.946h43.22
					V661.69h-49.837L686.685,438.067z"/>
				<rect id="Rectangle_3" x="643.027" y="264.627" style="fill:#DFE8E7;" width="153.929" height="44.108"/>
			</g>
		</g>
	</g>
</g>
<g>
</g>
<g>
</g>
<g>
</g>
<g>
</g>
<g>
</g>
<g>
</g>
</svg>
